<svg width="24" height="24" viewBox="0 0 24 24" fill="none" xmlns="http://www.w3.org/2000/svg">
<g id="headphones">
<mask id="mask0_165_56" style="mask-type:alpha" maskUnits="userSpaceOnUse" x="0" y="0" width="24" height="24">
<rect id="Bounding box" width="24" height="24" fill="#D9D9D9"/>
</mask>
<g mask="url(#mask0_165_56)">
<path id="headphones_2" d="M9.39566 21.4381H5.16956C4.43114 21.4381 3.80486 21.181 3.29073 20.6668C2.7766 20.1527 2.51953 19.5264 2.51953 18.788V12C2.51953 10.6935 2.76881 9.46375 3.26736 8.31083C3.76591 7.15793 4.4429 6.15377 5.29833 5.29833C6.15376 4.4429 7.15793 3.76591 8.31083 3.26736C9.46375 2.76881 10.6935 2.51953 12 2.51953C13.3065 2.51953 14.5362 2.76881 15.6891 3.26736C16.842 3.76591 17.8462 4.4429 18.7016 5.29833C19.5571 6.15377 20.2341 7.15793 20.7326 8.31083C21.2312 9.46375 21.4804 10.6935 21.4804 12V18.788C21.4804 19.5264 21.2234 20.1527 20.7092 20.6668C20.1951 21.181 19.5688 21.4381 18.8304 21.4381H14.6043V12.5619H18.8304V12C18.8304 10.0971 18.1677 8.48296 16.8424 7.15761C15.517 5.83224 13.9029 5.16956 12 5.16956C10.0971 5.16956 8.48296 5.83224 7.15761 7.15761C5.83224 8.48296 5.16956 10.0971 5.16956 12V12.5619H9.39566V21.4381Z" fill="white"/>
</g>
</g>
</svg>
