<svg width="24" height="24" viewBox="0 0 24 24" fill="none" xmlns="http://www.w3.org/2000/svg">
<g id="podcasts">
<mask id="mask0_165_61" style="mask-type:alpha" maskUnits="userSpaceOnUse" x="0" y="0" width="24" height="24">
<rect id="Bounding box" width="24" height="24" fill="#D9D9D9"/>
</mask>
<g mask="url(#mask0_165_61)">
<path id="podcasts_2" d="M10.7882 22.862V14.1065C10.4317 13.8949 10.1382 13.608 9.90778 13.2457C9.67733 12.8833 9.56211 12.4684 9.56211 12.0009C9.56211 11.3302 9.80105 10.756 10.2789 10.2784C10.7568 9.80075 11.3313 9.56192 12.0023 9.56192C12.6734 9.56192 13.2471 9.80075 13.7236 10.2784C14.2 10.756 14.4383 11.3302 14.4383 12.0009C14.4383 12.4684 14.323 12.8852 14.0926 13.2511C13.8621 13.6171 13.5687 13.9022 13.2122 14.1065V22.862H10.7882ZM4.49253 19.8577C3.45775 18.8656 2.64 17.6958 2.03928 16.3482C1.43855 15.0006 1.13818 13.549 1.13818 11.9933C1.13818 10.492 1.42188 9.08115 1.98928 7.76085C2.55667 6.44055 3.3304 5.29037 4.31048 4.3103C5.29055 3.33022 6.44183 2.55648 7.76431 1.9891C9.08678 1.4217 10.4998 1.138 12.0034 1.138C13.5071 1.138 14.919 1.4217 16.2393 1.9891C17.5596 2.55648 18.7098 3.33022 19.6899 4.3103C20.67 5.29037 21.4437 6.44113 22.0111 7.7626C22.5785 9.08407 22.8622 10.496 22.8622 11.9985C22.8622 13.5553 22.5618 15.0082 21.9611 16.3571C21.3604 17.706 20.5426 18.8729 19.5078 19.8577L17.7969 18.1467C18.6069 17.3762 19.2496 16.4613 19.7251 15.4018C20.2005 14.3424 20.4383 13.2085 20.4383 12.0002C20.4383 9.65369 19.6185 7.66068 17.979 6.02117C16.3395 4.38167 14.3466 3.56192 12.0002 3.56192C9.6538 3.56192 7.66086 4.38167 6.02136 6.02117C4.38186 7.66068 3.56211 9.65306 3.56211 11.9983C3.56211 13.206 3.79844 14.3374 4.27111 15.3925C4.74378 16.4477 5.39151 17.3621 6.21431 18.1359L4.49253 19.8577ZM7.47298 16.8772C6.8237 16.2707 6.30758 15.5495 5.92461 14.7138C5.54164 13.8781 5.35016 12.9735 5.35016 12C5.35016 10.1528 5.99653 8.58262 7.28926 7.28955C8.58199 5.9965 10.1518 5.34998 11.9985 5.34998C13.8453 5.34998 15.4156 5.99632 16.7094 7.28902C18.0033 8.58172 18.6502 10.1514 18.6502 11.9982C18.6502 12.9769 18.4587 13.885 18.0758 14.7223C17.6928 15.5596 17.1767 16.2779 16.5274 16.8772L14.8056 15.1555C15.2411 14.7627 15.5844 14.2936 15.8355 13.7483C16.0866 13.203 16.2122 12.6224 16.2122 12.0068C16.2122 10.8457 15.7999 9.85236 14.9754 9.02663C14.151 8.20089 13.1598 7.78802 12.0021 7.78802C10.8443 7.78802 9.85254 8.20003 9.02681 9.02402C8.20108 9.84803 7.78821 10.8386 7.78821 11.9957C7.78821 12.6268 7.91376 13.2131 8.16486 13.7544C8.41594 14.2957 8.75923 14.7627 9.19473 15.1555L7.47298 16.8772Z" fill="white"/>
</g>
</g>
</svg>
